<mxfile host="app.diagrams.net" modified="2023-06-06T08:03:16.126Z" agent="Mozilla/5.0 (Windows NT 10.0; Win64; x64; rv:109.0) Gecko/20100101 Firefox/113.0" etag="dGkMVxF6A1uWrgfuCjBm" version="21.3.7" type="device">
  <diagram name="Page-1" id="bd83a815-5ea8-2e97-e5ec-87c9f400f2fa">
    <mxGraphModel dx="1793" dy="1028" grid="1" gridSize="10" guides="1" tooltips="1" connect="1" arrows="1" fold="1" page="1" pageScale="1.5" pageWidth="1169" pageHeight="826" background="none" math="1" shadow="0">
      <root>
        <mxCell id="0" style=";html=1;" />
        <mxCell id="1" style=";html=1;" parent="0" />
        <mxCell id="UJCGpMKkWv5VHLOaRZoO-3" value="" style="rounded=1;whiteSpace=wrap;html=1;verticalAlign=bottom;labelPosition=center;verticalLabelPosition=top;align=center;fillColor=#d5e8d4;strokeColor=#82b366;" parent="1" vertex="1">
          <mxGeometry x="130" y="200" width="730" height="530" as="geometry" />
        </mxCell>
        <mxCell id="UJCGpMKkWv5VHLOaRZoO-21" value="" style="rounded=0;whiteSpace=wrap;html=1;sketch=0;fontSize=15;rotation=90;fillColor=#FFF2CC;strokeColor=#36393d;strokeWidth=3;" parent="1" vertex="1">
          <mxGeometry x="710" y="190" width="60" height="220" as="geometry" />
        </mxCell>
        <mxCell id="UJCGpMKkWv5VHLOaRZoO-33" value="" style="group" parent="1" vertex="1" connectable="0">
          <mxGeometry x="540" y="510" width="370" height="170" as="geometry" />
        </mxCell>
        <mxCell id="UJCGpMKkWv5VHLOaRZoO-31" value="&lt;span style=&quot;font-weight: normal;&quot;&gt;count&lt;/span&gt;&lt;div style=&quot;font-size: 25px;&quot;&gt;&lt;span style=&quot;font-weight: normal;&quot;&gt;last&lt;/span&gt;&lt;/div&gt;&lt;div style=&quot;font-size: 25px;&quot;&gt;&lt;span style=&quot;font-weight: normal;&quot;&gt;first&lt;br&gt;&lt;/span&gt;&lt;/div&gt;&lt;div style=&quot;font-size: 25px;&quot;&gt;&lt;span style=&quot;font-weight: normal;&quot;&gt;...&lt;/span&gt;&lt;br style=&quot;font-size: 25px;&quot;&gt;&lt;/div&gt;" style="rounded=1;whiteSpace=wrap;html=1;sketch=0;strokeWidth=1;fontSize=25;fillColor=#f5f5f5;fontColor=#333333;strokeColor=#666666;" parent="UJCGpMKkWv5VHLOaRZoO-33" vertex="1">
          <mxGeometry x="58.33" y="53.35" width="183.33" height="116.65" as="geometry" />
        </mxCell>
        <mxCell id="UJCGpMKkWv5VHLOaRZoO-32" value="Aggregation functions" style="text;whiteSpace=wrap;html=1;fontSize=25;fontColor=#000000;fontStyle=1" parent="UJCGpMKkWv5VHLOaRZoO-33" vertex="1">
          <mxGeometry x="33.33" width="336.67" height="54.63" as="geometry" />
        </mxCell>
        <mxCell id="0RtDbPZioMRsK1e_GvqP-8" value="Assets" style="childLayout=tableLayout;recursiveResize=0;strokeColor=#98bf21;fillColor=#A7C942;shadow=1;" vertex="1" parent="1">
          <mxGeometry x="160" y="257.5" width="330" height="445" as="geometry" />
        </mxCell>
        <mxCell id="0RtDbPZioMRsK1e_GvqP-9" style="shape=tableRow;horizontal=0;startSize=0;swimlaneHead=0;swimlaneBody=0;top=0;left=0;bottom=0;right=0;dropTarget=0;collapsible=0;recursiveResize=0;expand=0;fontStyle=0;strokeColor=inherit;fillColor=#ffffff;" vertex="1" parent="0RtDbPZioMRsK1e_GvqP-8">
          <mxGeometry width="330" height="70" as="geometry" />
        </mxCell>
        <mxCell id="0RtDbPZioMRsK1e_GvqP-10" value="Person ID" style="connectable=0;recursiveResize=0;strokeColor=#36393D;fillColor=#eeeeee;align=center;fontStyle=1;html=1;" vertex="1" parent="0RtDbPZioMRsK1e_GvqP-9">
          <mxGeometry width="63" height="70" as="geometry">
            <mxRectangle width="63" height="70" as="alternateBounds" />
          </mxGeometry>
        </mxCell>
        <mxCell id="0RtDbPZioMRsK1e_GvqP-29" value="Visit ID" style="connectable=0;recursiveResize=0;strokeColor=#36393D;fillColor=#eeeeee;align=center;fontStyle=1;html=1;" vertex="1" parent="0RtDbPZioMRsK1e_GvqP-9">
          <mxGeometry x="63" width="47" height="70" as="geometry">
            <mxRectangle width="47" height="70" as="alternateBounds" />
          </mxGeometry>
        </mxCell>
        <mxCell id="0RtDbPZioMRsK1e_GvqP-11" value="Event Code" style="connectable=0;recursiveResize=0;strokeColor=#36393D;fillColor=#eeeeee;align=center;fontStyle=1;html=1;" vertex="1" parent="0RtDbPZioMRsK1e_GvqP-9">
          <mxGeometry x="110" width="107" height="70" as="geometry">
            <mxRectangle width="107" height="70" as="alternateBounds" />
          </mxGeometry>
        </mxCell>
        <mxCell id="0RtDbPZioMRsK1e_GvqP-12" value="Start" style="connectable=0;recursiveResize=0;strokeColor=#36393D;fillColor=#eeeeee;align=center;fontStyle=1;html=1;" vertex="1" parent="0RtDbPZioMRsK1e_GvqP-9">
          <mxGeometry x="217" width="113" height="70" as="geometry">
            <mxRectangle width="113" height="70" as="alternateBounds" />
          </mxGeometry>
        </mxCell>
        <mxCell id="0RtDbPZioMRsK1e_GvqP-13" value="" style="shape=tableRow;horizontal=0;startSize=0;swimlaneHead=0;swimlaneBody=0;top=0;left=0;bottom=0;right=0;dropTarget=0;collapsible=0;recursiveResize=0;expand=0;fontStyle=0;strokeColor=inherit;fillColor=#ffffff;" vertex="1" parent="0RtDbPZioMRsK1e_GvqP-8">
          <mxGeometry y="70" width="330" height="63" as="geometry" />
        </mxCell>
        <mxCell id="0RtDbPZioMRsK1e_GvqP-14" value="Patient 1" style="connectable=0;recursiveResize=0;strokeColor=#36393D;fillColor=#FFF2CC;align=center;whiteSpace=wrap;html=1;" vertex="1" parent="0RtDbPZioMRsK1e_GvqP-13">
          <mxGeometry width="63" height="63" as="geometry">
            <mxRectangle width="63" height="63" as="alternateBounds" />
          </mxGeometry>
        </mxCell>
        <mxCell id="0RtDbPZioMRsK1e_GvqP-30" value="Visit 1" style="connectable=0;recursiveResize=0;strokeColor=#36393D;fillColor=#FFF2CC;align=center;whiteSpace=wrap;html=1;" vertex="1" parent="0RtDbPZioMRsK1e_GvqP-13">
          <mxGeometry x="63" width="47" height="63" as="geometry">
            <mxRectangle width="47" height="63" as="alternateBounds" />
          </mxGeometry>
        </mxCell>
        <mxCell id="0RtDbPZioMRsK1e_GvqP-15" value="ICD10:type 2 diabetes" style="connectable=0;recursiveResize=0;strokeColor=#36393D;fillColor=#FFF2CC;align=center;whiteSpace=wrap;html=1;" vertex="1" parent="0RtDbPZioMRsK1e_GvqP-13">
          <mxGeometry x="110" width="107" height="63" as="geometry">
            <mxRectangle width="107" height="63" as="alternateBounds" />
          </mxGeometry>
        </mxCell>
        <mxCell id="0RtDbPZioMRsK1e_GvqP-16" value="2021-01-08 22:01:05" style="connectable=0;recursiveResize=0;strokeColor=#36393D;fillColor=#FFF2CC;align=center;whiteSpace=wrap;html=1;" vertex="1" parent="0RtDbPZioMRsK1e_GvqP-13">
          <mxGeometry x="217" width="113" height="63" as="geometry">
            <mxRectangle width="113" height="63" as="alternateBounds" />
          </mxGeometry>
        </mxCell>
        <mxCell id="0RtDbPZioMRsK1e_GvqP-17" value="" style="shape=tableRow;horizontal=0;startSize=0;swimlaneHead=0;swimlaneBody=0;top=0;left=0;bottom=0;right=0;dropTarget=0;collapsible=0;recursiveResize=0;expand=0;fontStyle=1;strokeColor=inherit;fillColor=#EAF2D3;" vertex="1" parent="0RtDbPZioMRsK1e_GvqP-8">
          <mxGeometry y="133" width="330" height="61" as="geometry" />
        </mxCell>
        <mxCell id="0RtDbPZioMRsK1e_GvqP-18" value="Patient 1" style="connectable=0;recursiveResize=0;strokeColor=#36393d;fillColor=#FFF2CC;whiteSpace=wrap;html=1;" vertex="1" parent="0RtDbPZioMRsK1e_GvqP-17">
          <mxGeometry width="63" height="61" as="geometry">
            <mxRectangle width="63" height="61" as="alternateBounds" />
          </mxGeometry>
        </mxCell>
        <mxCell id="0RtDbPZioMRsK1e_GvqP-31" value="Visit 1" style="connectable=0;recursiveResize=0;strokeColor=#36393d;fillColor=#FFF2CC;whiteSpace=wrap;html=1;" vertex="1" parent="0RtDbPZioMRsK1e_GvqP-17">
          <mxGeometry x="63" width="47" height="61" as="geometry">
            <mxRectangle width="47" height="61" as="alternateBounds" />
          </mxGeometry>
        </mxCell>
        <mxCell id="0RtDbPZioMRsK1e_GvqP-19" value="Drug:Metformine" style="connectable=0;recursiveResize=0;strokeColor=#36393d;fillColor=#FFF2CC;whiteSpace=wrap;html=1;" vertex="1" parent="0RtDbPZioMRsK1e_GvqP-17">
          <mxGeometry x="110" width="107" height="61" as="geometry">
            <mxRectangle width="107" height="61" as="alternateBounds" />
          </mxGeometry>
        </mxCell>
        <mxCell id="0RtDbPZioMRsK1e_GvqP-20" value="2021-01-08 22:01:08" style="connectable=0;recursiveResize=0;strokeColor=#36393d;fillColor=#FFF2CC;whiteSpace=wrap;html=1;" vertex="1" parent="0RtDbPZioMRsK1e_GvqP-17">
          <mxGeometry x="217" width="113" height="61" as="geometry">
            <mxRectangle width="113" height="61" as="alternateBounds" />
          </mxGeometry>
        </mxCell>
        <mxCell id="0RtDbPZioMRsK1e_GvqP-34" style="shape=tableRow;horizontal=0;startSize=0;swimlaneHead=0;swimlaneBody=0;top=0;left=0;bottom=0;right=0;dropTarget=0;collapsible=0;recursiveResize=0;expand=0;fontStyle=0;strokeColor=inherit;fillColor=#ffffff;" vertex="1" parent="0RtDbPZioMRsK1e_GvqP-8">
          <mxGeometry y="194" width="330" height="66" as="geometry" />
        </mxCell>
        <mxCell id="0RtDbPZioMRsK1e_GvqP-35" value="&#xa;Patient 1&#xa;&#xa;" style="connectable=0;recursiveResize=0;strokeColor=#36393d;fillColor=#FFF2CC;fontStyle=0;align=center;whiteSpace=wrap;html=1;" vertex="1" parent="0RtDbPZioMRsK1e_GvqP-34">
          <mxGeometry width="63" height="66" as="geometry">
            <mxRectangle width="63" height="66" as="alternateBounds" />
          </mxGeometry>
        </mxCell>
        <mxCell id="0RtDbPZioMRsK1e_GvqP-36" value="&#xa;Visit 2&#xa;&#xa;" style="connectable=0;recursiveResize=0;strokeColor=#36393d;fillColor=#FFF2CC;fontStyle=0;align=center;whiteSpace=wrap;html=1;" vertex="1" parent="0RtDbPZioMRsK1e_GvqP-34">
          <mxGeometry x="63" width="47" height="66" as="geometry">
            <mxRectangle width="47" height="66" as="alternateBounds" />
          </mxGeometry>
        </mxCell>
        <mxCell id="0RtDbPZioMRsK1e_GvqP-37" value="ICD10:Heart failure" style="connectable=0;recursiveResize=0;strokeColor=#36393d;fillColor=#FFF2CC;fontStyle=0;align=center;whiteSpace=wrap;html=1;" vertex="1" parent="0RtDbPZioMRsK1e_GvqP-34">
          <mxGeometry x="110" width="107" height="66" as="geometry">
            <mxRectangle width="107" height="66" as="alternateBounds" />
          </mxGeometry>
        </mxCell>
        <mxCell id="0RtDbPZioMRsK1e_GvqP-38" value="2021-05-08 09:15:46" style="connectable=0;recursiveResize=0;strokeColor=#36393d;fillColor=#FFF2CC;fontStyle=0;align=center;whiteSpace=wrap;html=1;" vertex="1" parent="0RtDbPZioMRsK1e_GvqP-34">
          <mxGeometry x="217" width="113" height="66" as="geometry">
            <mxRectangle width="113" height="66" as="alternateBounds" />
          </mxGeometry>
        </mxCell>
        <mxCell id="0RtDbPZioMRsK1e_GvqP-25" value="" style="shape=tableRow;horizontal=0;startSize=0;swimlaneHead=0;swimlaneBody=0;top=0;left=0;bottom=0;right=0;dropTarget=0;collapsible=0;recursiveResize=0;expand=0;fontStyle=1;strokeColor=inherit;fillColor=#EAF2D3;" vertex="1" parent="0RtDbPZioMRsK1e_GvqP-8">
          <mxGeometry y="260" width="330" height="60" as="geometry" />
        </mxCell>
        <mxCell id="0RtDbPZioMRsK1e_GvqP-26" value="Patient 1" style="connectable=0;recursiveResize=0;strokeColor=#36393d;fillColor=#FFF2CC;whiteSpace=wrap;html=1;" vertex="1" parent="0RtDbPZioMRsK1e_GvqP-25">
          <mxGeometry width="63" height="60" as="geometry">
            <mxRectangle width="63" height="60" as="alternateBounds" />
          </mxGeometry>
        </mxCell>
        <mxCell id="0RtDbPZioMRsK1e_GvqP-33" value="Visit 2" style="connectable=0;recursiveResize=0;strokeColor=#36393d;fillColor=#FFF2CC;whiteSpace=wrap;html=1;" vertex="1" parent="0RtDbPZioMRsK1e_GvqP-25">
          <mxGeometry x="63" width="47" height="60" as="geometry">
            <mxRectangle width="47" height="60" as="alternateBounds" />
          </mxGeometry>
        </mxCell>
        <mxCell id="0RtDbPZioMRsK1e_GvqP-27" value="Drug:Amiodarone" style="connectable=0;recursiveResize=0;strokeColor=#36393d;fillColor=#FFF2CC;whiteSpace=wrap;html=1;" vertex="1" parent="0RtDbPZioMRsK1e_GvqP-25">
          <mxGeometry x="110" width="107" height="60" as="geometry">
            <mxRectangle width="107" height="60" as="alternateBounds" />
          </mxGeometry>
        </mxCell>
        <mxCell id="0RtDbPZioMRsK1e_GvqP-28" value="2021-05-08 10:15:45" style="connectable=0;recursiveResize=0;strokeColor=#36393d;fillColor=#FFF2CC;whiteSpace=wrap;html=1;" vertex="1" parent="0RtDbPZioMRsK1e_GvqP-25">
          <mxGeometry x="217" width="113" height="60" as="geometry">
            <mxRectangle width="113" height="60" as="alternateBounds" />
          </mxGeometry>
        </mxCell>
        <mxCell id="0RtDbPZioMRsK1e_GvqP-21" value="" style="shape=tableRow;horizontal=0;startSize=0;swimlaneHead=0;swimlaneBody=0;top=0;left=0;bottom=0;right=0;dropTarget=0;collapsible=0;recursiveResize=0;expand=0;fontStyle=0;strokeColor=inherit;fillColor=#ffffff;" vertex="1" parent="0RtDbPZioMRsK1e_GvqP-8">
          <mxGeometry y="320" width="330" height="65" as="geometry" />
        </mxCell>
        <mxCell id="0RtDbPZioMRsK1e_GvqP-22" value="Patient 1" style="connectable=0;recursiveResize=0;strokeColor=#36393d;fillColor=#FFF2CC;fontStyle=0;align=center;whiteSpace=wrap;html=1;" vertex="1" parent="0RtDbPZioMRsK1e_GvqP-21">
          <mxGeometry width="63" height="65" as="geometry">
            <mxRectangle width="63" height="65" as="alternateBounds" />
          </mxGeometry>
        </mxCell>
        <mxCell id="0RtDbPZioMRsK1e_GvqP-32" value="Visit 2" style="connectable=0;recursiveResize=0;strokeColor=#36393d;fillColor=#FFF2CC;fontStyle=0;align=center;whiteSpace=wrap;html=1;" vertex="1" parent="0RtDbPZioMRsK1e_GvqP-21">
          <mxGeometry x="63" width="47" height="65" as="geometry">
            <mxRectangle width="47" height="65" as="alternateBounds" />
          </mxGeometry>
        </mxCell>
        <mxCell id="0RtDbPZioMRsK1e_GvqP-23" value="CCAM: Interventional cardiovasculary imagery" style="connectable=0;recursiveResize=0;strokeColor=#36393d;fillColor=#FFF2CC;fontStyle=0;align=center;whiteSpace=wrap;html=1;" vertex="1" parent="0RtDbPZioMRsK1e_GvqP-21">
          <mxGeometry x="110" width="107" height="65" as="geometry">
            <mxRectangle width="107" height="65" as="alternateBounds" />
          </mxGeometry>
        </mxCell>
        <mxCell id="0RtDbPZioMRsK1e_GvqP-24" value="2021-05-08 11:10:43" style="connectable=0;recursiveResize=0;strokeColor=#36393d;fillColor=#FFF2CC;fontStyle=0;align=center;whiteSpace=wrap;html=1;" vertex="1" parent="0RtDbPZioMRsK1e_GvqP-21">
          <mxGeometry x="217" width="113" height="65" as="geometry">
            <mxRectangle width="113" height="65" as="alternateBounds" />
          </mxGeometry>
        </mxCell>
        <mxCell id="0RtDbPZioMRsK1e_GvqP-44" style="shape=tableRow;horizontal=0;startSize=0;swimlaneHead=0;swimlaneBody=0;top=0;left=0;bottom=0;right=0;dropTarget=0;collapsible=0;recursiveResize=0;expand=0;fontStyle=1;strokeColor=inherit;fillColor=#EAF2D3;" vertex="1" parent="0RtDbPZioMRsK1e_GvqP-8">
          <mxGeometry y="385" width="330" height="60" as="geometry" />
        </mxCell>
        <mxCell id="0RtDbPZioMRsK1e_GvqP-45" value="Patient 2" style="connectable=0;recursiveResize=0;strokeColor=#36393d;fillColor=#FFE599;whiteSpace=wrap;html=1;" vertex="1" parent="0RtDbPZioMRsK1e_GvqP-44">
          <mxGeometry width="63" height="60" as="geometry">
            <mxRectangle width="63" height="60" as="alternateBounds" />
          </mxGeometry>
        </mxCell>
        <mxCell id="0RtDbPZioMRsK1e_GvqP-46" value="Visit 3" style="connectable=0;recursiveResize=0;strokeColor=#36393d;fillColor=#FFE599;whiteSpace=wrap;html=1;" vertex="1" parent="0RtDbPZioMRsK1e_GvqP-44">
          <mxGeometry x="63" width="47" height="60" as="geometry">
            <mxRectangle width="47" height="60" as="alternateBounds" />
          </mxGeometry>
        </mxCell>
        <mxCell id="0RtDbPZioMRsK1e_GvqP-47" value="ICD10: sepsis" style="connectable=0;recursiveResize=0;strokeColor=#36393d;fillColor=#FFE599;whiteSpace=wrap;html=1;" vertex="1" parent="0RtDbPZioMRsK1e_GvqP-44">
          <mxGeometry x="110" width="107" height="60" as="geometry">
            <mxRectangle width="107" height="60" as="alternateBounds" />
          </mxGeometry>
        </mxCell>
        <mxCell id="0RtDbPZioMRsK1e_GvqP-48" value="2021-07-10 11:17:12" style="connectable=0;recursiveResize=0;strokeColor=#36393d;fillColor=#FFE599;whiteSpace=wrap;html=1;" vertex="1" parent="0RtDbPZioMRsK1e_GvqP-44">
          <mxGeometry x="217" width="113" height="60" as="geometry">
            <mxRectangle width="113" height="60" as="alternateBounds" />
          </mxGeometry>
        </mxCell>
        <mxCell id="0RtDbPZioMRsK1e_GvqP-49" value="" style="shape=curlyBracket;whiteSpace=wrap;html=1;rounded=1;labelPosition=left;verticalLabelPosition=middle;align=right;verticalAlign=middle;rotation=-180;" vertex="1" parent="1">
          <mxGeometry x="500" y="260" width="60" height="450" as="geometry" />
        </mxCell>
        <mxCell id="0RtDbPZioMRsK1e_GvqP-50" value="" style="edgeStyle=orthogonalEdgeStyle;endArrow=block;html=1;curved=1;rounded=0;endSize=8;startSize=8;strokeWidth=7;endFill=1;entryX=1;entryY=0.5;entryDx=0;entryDy=0;" edge="1" parent="1" target="0RtDbPZioMRsK1e_GvqP-52">
          <mxGeometry width="50" height="50" relative="1" as="geometry">
            <mxPoint x="570" y="485" as="sourcePoint" />
            <mxPoint x="1080" y="500" as="targetPoint" />
          </mxGeometry>
        </mxCell>
        <mxCell id="0RtDbPZioMRsK1e_GvqP-51" value="" style="shape=actor;whiteSpace=wrap;html=1;sketch=0;fontSize=15;fillColor=#FFF2CC;strokeColor=#36393d;" vertex="1" parent="1">
          <mxGeometry x="570" y="275" width="40" height="50" as="geometry" />
        </mxCell>
        <mxCell id="0RtDbPZioMRsK1e_GvqP-52" value="" style="rounded=0;whiteSpace=wrap;html=1;sketch=0;fontSize=15;rotation=90;fillColor=#FFE599;strokeColor=#36393d;strokeWidth=3;" vertex="1" parent="1">
          <mxGeometry x="710" y="250" width="60" height="220" as="geometry" />
        </mxCell>
        <mxCell id="0RtDbPZioMRsK1e_GvqP-53" value="" style="shape=actor;whiteSpace=wrap;html=1;sketch=0;fontSize=15;fillColor=#FFE599;strokeColor=#36393d;" vertex="1" parent="1">
          <mxGeometry x="570" y="335" width="40" height="50" as="geometry" />
        </mxCell>
        <mxCell id="0RtDbPZioMRsK1e_GvqP-54" value="`X`" style="text;html=1;strokeColor=none;fillColor=none;align=center;verticalAlign=middle;whiteSpace=wrap;rounded=0;sketch=0;strokeWidth=1;fontSize=45;fontColor=#000000;" vertex="1" parent="1">
          <mxGeometry x="635" y="190" width="180" height="100" as="geometry" />
        </mxCell>
        <mxCell id="0RtDbPZioMRsK1e_GvqP-55" value="Events `(i, c, t)`" style="text;whiteSpace=wrap;html=1;fontSize=36;fontStyle=1" vertex="1" parent="1">
          <mxGeometry x="200" y="200" width="400" height="40" as="geometry" />
        </mxCell>
      </root>
    </mxGraphModel>
  </diagram>
</mxfile>
